<?xml version="1.0" encoding="utf-8"?>
<!-- Generator: Adobe Illustrator 24.1.1, SVG Export Plug-In . SVG Version: 6.00 Build 0)  -->
<svg version="1.1" id="Capa_1" xmlns="http://www.w3.org/2000/svg" xmlns:xlink="http://www.w3.org/1999/xlink" x="0px" y="0px"
	 viewBox="0 0 500 500" style="enable-background:new 0 0 500 500;" xml:space="preserve">
<style type="text/css">
	.st0{fill:#F2F2F2;}
</style>
<rect width="500" height="500"/>
<rect x="63" y="141.3" class="st0" width="38" height="199"/>
<rect x="66.4" y="185.8" transform="matrix(0.6644 -0.7474 0.7474 0.6644 -107.7639 169.061)" class="st0" width="136" height="37.5"/>
<rect x="126.4" y="230.8" transform="matrix(0.7354 -0.6776 0.6776 0.7354 -155.5744 174.3292)" class="st0" width="38" height="111.2"/>
<rect x="169.2" y="307.3" class="st0" width="135.5" height="33"/>
<polygon class="st0" points="304.8,340.3 304.8,307.3 317.5,340.3 "/>
<polygon class="st0" points="374.4,141.3 374.4,174.3 387.2,141.3 "/>
<path class="st0" d="M272.9,257.3c0-11,0-22,0-33l12.8,33C281.4,257.3,277.1,257.3,272.9,257.3z"/>
<rect x="186.3" y="224.3" class="st0" width="86.6" height="33"/>
<polygon class="st0" points="324.4,141.3 324.3,174.3 311.6,141.3 "/>
<rect x="324.4" y="141.3" class="st0" width="50" height="33"/>
<rect x="321.9" y="160.9" transform="matrix(0.9377 -0.3475 0.3475 0.9377 -37.8061 123.5193)" class="st0" width="7.2" height="12.6"/>
<rect x="367" y="163.7" transform="matrix(0.3475 -0.9377 0.9377 0.3475 86.696 459.1066)" class="st0" width="12.4" height="7.1"/>
<rect x="292.8" y="142.2" transform="matrix(0.9335 -0.3587 0.3587 0.9335 -65.4984 128.5261)" class="st0" width="41.7" height="197.1"/>
<path class="st0" d="M285.6,257.3c-5.5-0.2-11.1-0.4-16.6-0.6l-10.4-27l14.1-5.4C277.1,235.3,281.4,246.3,285.6,257.3z"/>
<rect x="285.9" y="219.9" transform="matrix(0.3587 -0.9335 0.9335 0.3587 21.7545 513.1826)" class="st0" width="197" height="41.7"/>
<rect x="329.5" y="286.5" class="st0" width="39" height="53.8"/>
<path class="st0" d="M439.3,156.3c-13-3.4-25.9-6.8-38.9-10.2v-4.8c14.9,0,29.8,0,44.7,0C443.1,146.3,441.2,151.3,439.3,156.3z"/>
<rect x="186.3" y="143" class="st0" width="37.5" height="197.3"/>
<rect x="165.6" y="141.3" class="st0" width="132.1" height="32.7"/>
<path class="st0" d="M317.5,340.3c-5.5-0.2-11.1-0.4-16.6-0.6l-10.4-27l14.1-5.4C308.9,318.3,313.2,329.3,317.5,340.3z"/>
<polygon class="st0" points="327.9,141.3 327.9,174.1 315.1,141.3 "/>
<polygon class="st0" points="370.9,141.3 370.9,174 383.7,141.3 "/>
</svg>
